<svg xmlns="http://www.w3.org/2000/svg" viewBox="0 0 100 100" preserveAspectRatio="xMidYMid meet">
  <style>
    @keyframes pulse {
      0% { opacity: 0.7; }
      50% { opacity: 1; }
      100% { opacity: 0.7; }
    }
    
    .coupling-central-anim {
      animation: pulse 5s infinite;
    }
  </style>
  
  <!-- Defs for patterns and masks -->
  <defs>
    <!-- Clip path for the screen area -->
    <clipPath id="screen-area">
      <path d="m85.14,70.02c-2.5,0-5.99-.52-10.11-1.14-2.58-.39-5.25-.79-8.02-1.11-.97-.11-1.93-.22-2.86-.32-7.62-.82-13.65-1.46-17.69-7.41-4.77-7.01-4.04-15.04-1.78-20.22,2.39-5.45,8.15-6.41,8.79-6.5h.1c2.65-.26,5.82-.22,9.36.11,1.41.13,2.89.31,4.39.53,11.98,1.76,17.14,3.11,20.46,5.32,3.45,2.3,7.47,7.92,7.47,16.21,0,7.84-2.09,11.71-7.71,14.27-.65.18-1.46.26-2.43.26Z"/>
    </clipPath>

    <!-- Pattern for the coupling kernel animation -->
    <pattern id="nestedCirclePattern" patternUnits="userSpaceOnUse" width="30" height="30" patternTransform="scale(1.0)">
      <rect width="30" height="30" fill="#000000" />
      <!-- Center grid point -->
      <g>
        <!-- Concentric circles set 1 -->
        <circle cx="15" cy="15" r="8" stroke="#4CAF50" stroke-width="0.8" stroke-opacity="0.8" fill="none">
          <animate class="coupling-central-anim" attributeName="r" values="8;10;7;9;8" dur="4s" repeatCount="indefinite" />
          <animate class="coupling-central-anim" attributeName="stroke" values="#4CAF50;#FF5252;#2196F3;#FFEB3B;#9C27B0;#4CAF50" dur="4s" repeatCount="indefinite" />
        </circle>
        <circle cx="15" cy="15" r="5" stroke="#2196F3" stroke-width="0.8" stroke-opacity="0.8" fill="none">
          <animate class="coupling-central-anim" attributeName="r" values="5;4;6;5" dur="4.5s" repeatCount="indefinite" />
          <animate class="coupling-central-anim" attributeName="stroke" values="#2196F3;#FFEB3B;#9C27B0;#4CAF50;#FF5252;#2196F3" dur="4.5s" repeatCount="indefinite" />
        </circle>
        <circle cx="15" cy="15" r="2" stroke="#FF5252" stroke-width="0.8" stroke-opacity="0.8" fill="none">
          <animate class="coupling-central-anim" attributeName="r" values="2;3;1.5;2.5;2" dur="5s" repeatCount="indefinite" />
          <animate class="coupling-central-anim" attributeName="stroke" values="#FF5252;#9C27B0;#4CAF50;#FF5252;#2196F3;#FF5252" dur="5s" repeatCount="indefinite" />
        </circle>
      </g>
      
      <!-- Small grid point - top left -->
      <g>
        <circle cx="5" cy="5" r="3" stroke="#9C27B0" stroke-width="0.8" stroke-opacity="0.8" fill="none">
          <animate class="coupling-central-anim" attributeName="r" values="3;2;4;2.5;3" dur="3.5s" repeatCount="indefinite" />
          <animate class="coupling-central-anim" attributeName="stroke" values="#9C27B0;#FFEB3B;#FF5252;#2196F3;#4CAF50;#9C27B0" dur="3.5s" repeatCount="indefinite" />
        </circle>
        <circle cx="5" cy="5" r="1.5" stroke="#00BCD4" stroke-width="0.8" stroke-opacity="0.8" fill="none">
          <animate class="coupling-central-anim" attributeName="r" values="1.5;2;1;1.8;1.5" dur="4.2s" repeatCount="indefinite" />
          <animate class="coupling-central-anim" attributeName="stroke" values="#00BCD4;#4CAF50;#9C27B0;#FFEB3B;#FF5252;#00BCD4" dur="4.2s" repeatCount="indefinite" />
        </circle>
      </g>
      
      <!-- Small grid point - top right -->
      <g>
        <circle cx="25" cy="5" r="3" stroke="#FF9800" stroke-width="0.8" stroke-opacity="0.8" fill="none">
          <animate class="coupling-central-anim" attributeName="r" values="3;2;4;2.5;3" dur="5.2s" repeatCount="indefinite" />
          <animate class="coupling-central-anim" attributeName="stroke" values="#FF9800;#FF5252;#4CAF50;#2196F3;#9C27B0;#FF9800" dur="5.2s" repeatCount="indefinite" />
        </circle>
        <circle cx="25" cy="5" r="1.5" stroke="#CDDC39" stroke-width="0.8" stroke-opacity="0.8" fill="none">
          <animate class="coupling-central-anim" attributeName="r" values="1.5;2;1;1.8;1.5" dur="3.8s" repeatCount="indefinite" />
          <animate class="coupling-central-anim" attributeName="stroke" values="#CDDC39;#FF5252;#9C27B0;#00BCD4;#4CAF50;#CDDC39" dur="3.8s" repeatCount="indefinite" />
        </circle>
      </g>
      
      <!-- Small grid point - bottom left -->
      <g>
        <circle cx="5" cy="25" r="3" stroke="#E91E63" stroke-width="0.8" stroke-opacity="0.8" fill="none">
          <animate class="coupling-central-anim" attributeName="r" values="3;2;4;2.5;3" dur="4.7s" repeatCount="indefinite" />
          <animate class="coupling-central-anim" attributeName="stroke" values="#E91E63;#2196F3;#FFEB3B;#4CAF50;#9C27B0;#E91E63" dur="4.7s" repeatCount="indefinite" />
        </circle>
        <circle cx="5" cy="25" r="1.5" stroke="#03A9F4" stroke-width="0.8" stroke-opacity="0.8" fill="none">
          <animate class="coupling-central-anim" attributeName="r" values="1.5;2;1;1.8;1.5" dur="5.5s" repeatCount="indefinite" />
          <animate class="coupling-central-anim" attributeName="stroke" values="#03A9F4;#FF9800;#9C27B0;#FFEB3B;#FF5252;#03A9F4" dur="5.5s" repeatCount="indefinite" />
        </circle>
      </g>
      
      <!-- Small grid point - bottom right -->
      <g>
        <circle cx="25" cy="25" r="3" stroke="#673AB7" stroke-width="0.8" stroke-opacity="0.8" fill="none">
          <animate class="coupling-central-anim" attributeName="r" values="3;2;4;2.5;3" dur="3.3s" repeatCount="indefinite" />
          <animate class="coupling-central-anim" attributeName="stroke" values="#673AB7;#FF5252;#03A9F4;#4CAF50;#FFEB3B;#673AB7" dur="3.3s" repeatCount="indefinite" />
        </circle>
        <circle cx="25" cy="25" r="1.5" stroke="#8BC34A" stroke-width="0.8" stroke-opacity="0.8" fill="none">
          <animate class="coupling-central-anim" attributeName="r" values="1.5;2;1;1.8;1.5" dur="4.9s" repeatCount="indefinite" />
          <animate class="coupling-central-anim" attributeName="stroke" values="#8BC34A;#9C27B0;#03A9F4;#FF5252;#2196F3;#8BC34A" dur="4.9s" repeatCount="indefinite" />
        </circle>
      </g>
      
      <!-- Connecting lines -->
      <line x1="15" y1="15" x2="5" y2="5" stroke="#FF5252" stroke-width="0.5" stroke-opacity="0.6" />
      <line x1="15" y1="15" x2="25" y2="5" stroke="#FFEB3B" stroke-width="0.5" stroke-opacity="0.6" />
      <line x1="15" y1="15" x2="25" y2="25" stroke="#4CAF50" stroke-width="0.5" stroke-opacity="0.6" />
      <line x1="15" y1="15" x2="5" y2="25" stroke="#2196F3" stroke-width="0.5" stroke-opacity="0.6" />
    </pattern>
  </defs>
  
  <!-- Background screen area with coupling kernel animation -->
  <g clip-path="url(#screen-area)">
    <!-- Dark background -->
    <rect x="0" y="0" width="100" height="100" fill="#000000"/>
    
    <!-- Coupling kernel animation adapted for VR screen size -->
    <g>
      <!-- Background pattern for whole screen -->
      <rect x="0" y="0" width="100" height="100" fill="url(#nestedCirclePattern)"/>
      
      <!-- Additional pulsating circles at various points in the screen -->
      <g>
        <!-- Center animation circles -->
        <circle cx="50" cy="50" r="15" stroke="#4834d4" stroke-width="1" stroke-opacity="0.8" fill="none">
          <animate class="coupling-central-anim" attributeName="r" values="15;18;13;16;15" dur="4.3s" repeatCount="indefinite" />
          <animate class="coupling-central-anim" attributeName="stroke" values="#4834d4;#FF5252;#4CAF50;#FFEB3B;#2196F3;#4834d4" dur="4.3s" repeatCount="indefinite" />
        </circle>
        <circle cx="50" cy="50" r="10" stroke="#2196F3" stroke-width="1" stroke-opacity="0.8" fill="none">
          <animate class="coupling-central-anim" attributeName="r" values="10;8;12;9;10" dur="3.7s" repeatCount="indefinite" />
          <animate class="coupling-central-anim" attributeName="stroke" values="#2196F3;#4CAF50;#FF5252;#9C27B0;#FFEB3B;#2196F3" dur="3.7s" repeatCount="indefinite" />
        </circle>
        <circle cx="50" cy="50" r="5" stroke="#4CAF50" stroke-width="1" stroke-opacity="0.8" fill="none">
          <animate class="coupling-central-anim" attributeName="r" values="5;6;4;7;5" dur="5.1s" repeatCount="indefinite" />
          <animate class="coupling-central-anim" attributeName="stroke" values="#4CAF50;#FFEB3B;#2196F3;#FF5252;#9C27B0;#4CAF50" dur="5.1s" repeatCount="indefinite" />
        </circle>
        
        <!-- Top left group -->
        <circle cx="35" cy="40" r="7" stroke="#9C27B0" stroke-width="1" stroke-opacity="0.8" fill="none">
          <animate class="coupling-central-anim" attributeName="r" values="7;5;9;6;7" dur="3.5s" repeatCount="indefinite" />
          <animate class="coupling-central-anim" attributeName="stroke" values="#9C27B0;#FF5252;#4CAF50;#FFEB3B;#2196F3;#9C27B0" dur="3.5s" repeatCount="indefinite" />
        </circle>
        <circle cx="35" cy="40" r="3" stroke="#FF9800" stroke-width="0.8" stroke-opacity="0.8" fill="none">
          <animate class="coupling-central-anim" attributeName="r" values="3;4;2;3.5;3" dur="4.2s" repeatCount="indefinite" />
          <animate class="coupling-central-anim" attributeName="stroke" values="#FF9800;#4CAF50;#FF5252;#9C27B0;#FFEB3B;#FF9800" dur="4.2s" repeatCount="indefinite" />
        </circle>
        
        <!-- Top right group -->
        <circle cx="65" cy="40" r="7" stroke="#673AB7" stroke-width="1" stroke-opacity="0.8" fill="none">
          <animate class="coupling-central-anim" attributeName="r" values="7;5;9;6;7" dur="4.8s" repeatCount="indefinite" />
          <animate class="coupling-central-anim" attributeName="stroke" values="#673AB7;#4CAF50;#FF5252;#FFEB3B;#2196F3;#673AB7" dur="4.8s" repeatCount="indefinite" />
        </circle>
        <circle cx="65" cy="40" r="3" stroke="#8BC34A" stroke-width="0.8" stroke-opacity="0.8" fill="none">
          <animate class="coupling-central-anim" attributeName="r" values="3;4;2;3.5;3" dur="3.9s" repeatCount="indefinite" />
          <animate class="coupling-central-anim" attributeName="stroke" values="#8BC34A;#FF5252;#FFEB3B;#9C27B0;#2196F3;#8BC34A" dur="3.9s" repeatCount="indefinite" />
        </circle>
        
        <!-- Bottom left group -->
        <circle cx="35" cy="60" r="7" stroke="#E91E63" stroke-width="1" stroke-opacity="0.8" fill="none">
          <animate class="coupling-central-anim" attributeName="r" values="7;5;9;6;7" dur="5.2s" repeatCount="indefinite" />
          <animate class="coupling-central-anim" attributeName="stroke" values="#E91E63;#FFEB3B;#2196F3;#4CAF50;#FF5252;#E91E63" dur="5.2s" repeatCount="indefinite" />
        </circle>
        <circle cx="35" cy="60" r="3" stroke="#00BCD4" stroke-width="0.8" stroke-opacity="0.8" fill="none">
          <animate class="coupling-central-anim" attributeName="r" values="3;4;2;3.5;3" dur="4.5s" repeatCount="indefinite" />
          <animate class="coupling-central-anim" attributeName="stroke" values="#00BCD4;#9C27B0;#FFEB3B;#4CAF50;#2196F3;#00BCD4" dur="4.5s" repeatCount="indefinite" />
        </circle>
        
        <!-- Bottom right group -->
        <circle cx="65" cy="60" r="7" stroke="#CDDC39" stroke-width="1" stroke-opacity="0.8" fill="none">
          <animate class="coupling-central-anim" attributeName="r" values="7;5;9;6;7" dur="4s" repeatCount="indefinite" />
          <animate class="coupling-central-anim" attributeName="stroke" values="#CDDC39;#2196F3;#FF5252;#9C27B0;#FFEB3B;#CDDC39" dur="4s" repeatCount="indefinite" />
        </circle>
        <circle cx="65" cy="60" r="3" stroke="#03A9F4" stroke-width="0.8" stroke-opacity="0.8" fill="none">
          <animate class="coupling-central-anim" attributeName="r" values="3;4;2;3.5;3" dur="5.5s" repeatCount="indefinite" />
          <animate class="coupling-central-anim" attributeName="stroke" values="#03A9F4;#4CAF50;#9C27B0;#FF5252;#FFEB3B;#03A9F4" dur="5.5s" repeatCount="indefinite" />
        </circle>
        
        <!-- Additional circles for more density -->
        <circle cx="50" cy="35" r="5" stroke="#FF5722" stroke-width="0.8" stroke-opacity="0.8" fill="none">
          <animate class="coupling-central-anim" attributeName="r" values="5;3;6;4;5" dur="3.8s" repeatCount="indefinite" />
          <animate class="coupling-central-anim" attributeName="stroke" values="#FF5722;#2196F3;#9C27B0;#4CAF50;#FFEB3B;#FF5722" dur="3.8s" repeatCount="indefinite" />
        </circle>
        <circle cx="50" cy="65" r="5" stroke="#009688" stroke-width="0.8" stroke-opacity="0.8" fill="none">
          <animate class="coupling-central-anim" attributeName="r" values="5;3;6;4;5" dur="4.6s" repeatCount="indefinite" />
          <animate class="coupling-central-anim" attributeName="stroke" values="#009688;#FF5252;#2196F3;#CDDC39;#9C27B0;#009688" dur="4.6s" repeatCount="indefinite" />
        </circle>
        <circle cx="42" cy="50" r="4" stroke="#FFC107" stroke-width="0.8" stroke-opacity="0.8" fill="none">
          <animate class="coupling-central-anim" attributeName="r" values="4;2;5;3;4" dur="5.3s" repeatCount="indefinite" />
          <animate class="coupling-central-anim" attributeName="stroke" values="#FFC107;#9C27B0;#4CAF50;#2196F3;#FF5252;#FFC107" dur="5.3s" repeatCount="indefinite" />
        </circle>
        <circle cx="58" cy="50" r="4" stroke="#607D8B" stroke-width="0.8" stroke-opacity="0.8" fill="none">
          <animate class="coupling-central-anim" attributeName="r" values="4;2;5;3;4" dur="3.6s" repeatCount="indefinite" />
          <animate class="coupling-central-anim" attributeName="stroke" values="#607D8B;#FF5252;#CDDC39;#9C27B0;#4CAF50;#607D8B" dur="3.6s" repeatCount="indefinite" />
        </circle>
        
        <!-- Connecting lines -->
        <line x1="50" y1="50" x2="35" y2="40" stroke="#FF5252" stroke-width="0.4" stroke-opacity="0.5" />
        <line x1="50" y1="50" x2="65" y2="40" stroke="#FFEB3B" stroke-width="0.4" stroke-opacity="0.5" />
        <line x1="50" y1="50" x2="65" y2="60" stroke="#4CAF50" stroke-width="0.4" stroke-opacity="0.5" />
        <line x1="50" y1="50" x2="35" y2="60" stroke="#2196F3" stroke-width="0.4" stroke-opacity="0.5" />
        <line x1="50" y1="50" x2="50" y2="35" stroke="#9C27B0" stroke-width="0.4" stroke-opacity="0.5" />
        <line x1="50" y1="50" x2="50" y2="65" stroke="#FF9800" stroke-width="0.4" stroke-opacity="0.5" />
        <line x1="50" y1="50" x2="42" y2="50" stroke="#03A9F4" stroke-width="0.4" stroke-opacity="0.5" />
        <line x1="50" y1="50" x2="58" y2="50" stroke="#8BC34A" stroke-width="0.4" stroke-opacity="0.5" />
      </g>
    </g>
  </g>
  
  <!-- Full VR Headset (all elements with exact original paths) -->
  <path d="m75.22,73.47c-1.43,0-4-.64-4-1.92,0-.51.15-.75.29-.95.07-.09.09-.12.09-.35,0-.21-.92-1.05-5.2-1.05-1.87,0-3.61.25-5.46.51-2.17.31-4.64.66-7.75.66-5.22,0-15.48-1.42-20.81-6.75-2.59-2.59-3.9-5.84-3.9-9.67,0-.3.03-.64.1-1l.04-.26,1.91-.88c2.29-1.05,4.1-1.89,4.96-2.32,1.12-.56,2.21-2.34,2.77-4.53.46-1.8.44-3.43-.06-4.15l-.3-.43.44-.28c.45-.28.91-.56,1.39-.82,2.5-1.37,4.4-2.4,5.84-3.16,2.15-1.14,3.25-1.69,3.72-1.92.31-.15.64-.27.97-.36.61-.15,1.66-.36,3.2-.51l.12.99c-.59.08-5.85.96-8.02,5.91-2.16,4.93-2.85,12.58,1.69,19.26,3.78,5.56,9.6,6.19,16.97,6.97.93.1,1.89.2,2.87.32,2.78.33,5.46.73,8.05,1.12,5.36.8,10,1.5,12.05.93l.34.94c-.63.29-1.33.57-2.08.83-5.44,1.91-7.79,2.62-9.29,2.82-.36.04-.67.06-.97.06Zm-8.8-5.27c5.12,0,6.2,1.12,6.2,2.05,0,.51-.15.75-.29.95-.07.09-.09.12-.09.35.09.29,1.56.92,3,.92.26,0,.53-.01.85-.05,1.31-.17,3.47-.81,8.07-2.41-2.38-.12-5.51-.58-9.12-1.12-2.58-.39-5.25-.79-8.02-1.11-.97-.11-1.93-.22-2.86-.32-7.62-.82-13.65-1.46-17.69-7.41-4.77-7.01-4.04-15.04-1.78-20.22.6-1.37,1.41-2.46,2.3-3.31-.28.15-.58.31-.9.48-1.43.76-3.33,1.79-5.83,3.15-.32.18-.64.36-.95.55.43,1.04.42,2.67-.05,4.51-.5,1.96-1.63,4.35-3.29,5.18-.87.44-2.69,1.27-4.99,2.33l-1.43.66c-.03.21-.04.4-.04.58,0,3.61,1.18,6.54,3.61,8.97,5.1,5.1,15.03,6.46,20.1,6.46,3.04,0,5.36-.33,7.6-.65,1.88-.27,3.66-.52,5.6-.52Z" fill="#333"/>
  
  <!-- VR Headset screen outline -->
  <path d="m85.14,70.02c-2.5,0-5.99-.52-10.11-1.14-2.58-.39-5.25-.79-8.02-1.11-.97-.11-1.93-.22-2.86-.32-7.62-.82-13.65-1.46-17.69-7.41-4.77-7.01-4.04-15.04-1.78-20.22,2.39-5.45,8.15-6.41,8.79-6.5h.1c2.65-.26,5.82-.22,9.36.11,1.41.13,2.89.31,4.39.53,11.98,1.76,17.14,3.11,20.46,5.32,3.45,2.3,7.47,7.92,7.47,16.21,0,7.84-2.09,11.71-7.71,14.27-.65.18-1.46.26-2.43.26Zm-27.83-35.87c-1.31,0-2.54.05-3.68.16-.6.08-5.86.96-8.03,5.91-2.16,4.93-2.85,12.58,1.69,19.26,3.78,5.56,9.6,6.19,16.97,6.97.93.1,1.89.2,2.87.32,2.78.33,5.46.73,8.05,1.12,5.37.8,10,1.5,12.05.93,5.12-2.34,7.05-5.96,7.05-13.33,0-7.89-3.79-13.21-7.03-15.38-3.14-2.09-8.39-3.45-20.05-5.16-1.49-.22-2.95-.4-4.34-.53-1.97-.18-3.83-.28-5.54-.28Z" fill="none" stroke="#333" stroke-width="0.5"/>
  
  <!-- Bottom dark section (fill="#222") -->
  <g>
    <path d="m76.13,72.91v2.26c-1.04,1.04-2.33,1.42-3.62,1.42s-3.5-.52-4.27-1.55-.65-4.92-.65-4.92c-2.85,0-7.77.52-12.56,1.94-.9.27-1.97.46-3.14.59,0,0,0,0,0,0-5.05.55-11.93-.06-14.97-.59-2.98-.51-7.68-2.42-10.4-6.75-.7-1.12-1.27-2.4-1.64-3.86-.54-2.13-.76-4.18-.66-6.16,1.69-.79,3.35-1.56,4.89-2.27-.06.34-.09.65-.09.92,0,2.72.65,6.21,3.75,9.32,5.05,5.05,14.76,6.6,20.45,6.6s9.06-1.17,13.2-1.17,5.7.78,5.7,1.55-.39.52-.39,1.29,2.07,1.42,3.5,1.42c.28,0,.57-.02.91-.06Z" fill="#222"/>
    <path d="m72.51,77.09c-1.39,0-3.76-.54-4.67-1.75-.7-.94-.77-3.51-.76-4.71-2.82.06-7.42.58-11.91,1.92-.82.24-1.82.44-2.96.57h0s-.27.03-.27.03c-4.94.54-11.81-.02-15.11-.59-3.45-.59-8.08-2.74-10.74-6.98-.77-1.22-1.34-2.57-1.7-4-.55-2.17-.78-4.29-.67-6.31l.02-.3.27-.13c1.69-.79,3.36-1.56,4.89-2.27l.86-.4-.16.94c-.05.31-.08.59-.08.83,0,3.61,1.18,6.54,3.61,8.97,5.1,5.1,15.03,6.46,20.1,6.46,3.04,0,5.36-.33,7.6-.65,1.88-.27,3.66-.52,5.6-.52,5.12,0,6.2,1.12,6.2,2.05,0,.51-.15.75-.29.95-.07.09-.09.12-.09.35.09.29,1.56.92,3,.92.26,0,.53-.01.85-.05l.56-.07v3.03l-.15.15c-1.03,1.03-2.4,1.57-3.98,1.57Zm-4.92-7.47h.52l-.02.52c-.05,1.43.06,3.95.55,4.6.6.8,2.52,1.35,3.87,1.35,1.25,0,2.3-.38,3.12-1.14v-1.5c-.14,0-.27.01-.41.01-1.43,0-4-.64-4-1.92,0-.51.15-.75.29-.95.07-.09.09-.12.09-.35,0-.21-.92-1.05-5.2-1.05-1.87,0-3.61.25-5.46.51-2.17.31-4.64.66-7.75.66-5.22,0-15.48-1.42-20.81-6.75-2.59-2.59-3.9-5.84-3.9-9.67,0-.03,0-.07,0-.1-1.22.56-2.51,1.16-3.81,1.77-.06,1.83.16,3.75.66,5.71.34,1.33.87,2.59,1.58,3.72,2.48,3.96,6.82,5.97,10.06,6.52,3.19.55,9.74,1.09,14.57.61l.02-.03h.31c1.14-.13,2.17-.32,3-.57,4.88-1.45,9.89-1.96,12.7-1.96Z" fill="#222"/>
  </g>
  
  <!-- Left side elements (fill="#444") -->
  <path d="m5.08,67.42l-.36-10.91.02-.08c.71-2.47,4.73-5.28,13.02-9.12,1.03-.48,2.13-.97,3.27-1.47,2.75-1.21,5.64-2.47,8.15-3.5h0l1.14-.47c5.64-2.29,7.3-2.55,8.05-2.25.3.16.5.35.67.6.67.98.75,2.83.2,4.97-.5,1.96-1.63,4.35-3.29,5.18h0c-.87.44-2.69,1.27-4.99,2.33l-1.67.77c-1.53.71-3.2,1.48-4.88,2.27-3.32,1.56-5.95,2.83-8.03,3.89-.94.48-1.8.93-2.55,1.35-.53.29-1.02.57-1.49.84-4.28,2.49-6.28,4.26-6.28,5.58l-1,.02Zm.65-10.78l.28,8.62c1.01-1.21,2.89-2.58,5.84-4.29.47-.27.97-.56,1.51-.86.76-.42,1.63-.88,2.58-1.36,2.09-1.07,4.72-2.34,8.06-3.91,1.69-.79,3.36-1.56,4.89-2.27l1.67-.77c2.29-1.05,4.1-1.89,4.96-2.32,1.12-.56,2.21-2.34,2.77-4.53.46-1.8.44-3.43-.06-4.15-.08-.12-.18-.21-.28-.27-.35-.14-1.94.12-7.25,2.28l-1.01.41c-2.53,1.04-5.59,2.38-8.26,3.54-1.14.5-2.23.99-3.25,1.46-4.93,2.28-11.56,5.62-12.46,8.41Z" fill="#444"/>
  <path d="m26.67,74.89h-.25c-3.33,0-6.53-.33-9.49-.98l-.74-.16.44-.62c.06-.09.23-.4.23-.68,0-5.84-.63-9.72-.64-9.76-.01-.03-.55-1.96-.55-3.51v-.31l.27-.14c2.09-1.07,4.72-2.34,8.06-3.91l.76-.35-.04.83c-.1,1.91.12,3.94.64,6.01.34,1.33.87,2.59,1.58,3.72l.07.12v.14c.01.31.21,7.54.21,8.13,0,.73-.36,1.22-.4,1.27l-.15.2Zm-8.91-1.83c2.63.53,5.44.81,8.37.83.05-.12.09-.28.09-.47,0-.53-.18-6.95-.2-7.96-.73-1.19-1.28-2.5-1.63-3.89-.48-1.88-.71-3.72-.7-5.48-2.84,1.33-5.14,2.45-7.01,3.4.06,1.36.51,2.97.52,2.99.02.09.67,4.05.67,9.97,0,.22-.04.43-.1.61Z" fill="#444"/>
  <path d="m25.41,74.9l.61-.8s.2-.29.2-.67c0-.57-.2-8.02-.21-8.1l-.05-1.83.97,1.56c2.48,3.96,6.82,5.97,10.06,6.52,3.25.56,9.99,1.11,14.84.58l3.94-.43-3.71,1.39c-.18.07-4.62,1.65-25.63,1.78h-1.02Zm1.65-7.96c.06,2.25.16,6.08.16,6.49,0,.17-.02.32-.05.46,7.73-.06,13.11-.32,16.82-.61-2.83-.14-5.47-.43-7.17-.72-3.06-.53-7.05-2.28-9.77-5.63Z" fill="#444"/>
  <path d="m17.25,73.98l-.32-.07c-7.34-1.61-11.85-4.88-11.85-6.51,0-1.78,1.96-3.65,6.77-6.44l.18-.1,5.12,1.36.05.32s.65,3.99.65,9.92c0,.66-.37,1.2-.42,1.26l-.19.27Zm-5.07-12.05c-4.16,2.43-6.1,4.17-6.1,5.47,0,.63,3.35,3.76,10.69,5.45.05-.12.09-.26.09-.4,0-4.89-.44-8.4-.59-9.44l-4.09-1.08Z" fill="#444"/>
  
  <!-- Top elements (fill="#555") -->
  <path d="m45.85,36.54c-1.43.76-3.34,1.79-5.83,3.16-.47.26-.93.53-1.37.81-.12-.18-.27-.32-.45-.42-.8-.32-3.5.55-7.68,2.25,5.4-5.13,15.33-5.79,15.33-5.79Z" fill="#555"/>
  <path d="m28.27,43.79l1.91-1.82c5.47-5.19,15.22-5.9,15.64-5.93l2.33-.16-2.07,1.1c-1.43.76-3.33,1.79-5.83,3.15-.46.25-.91.52-1.34.79l-.41.26-.27-.4c-.08-.12-.17-.21-.28-.26-.35-.14-1.94.12-7.25,2.28l-2.45.99Zm14.93-6.39c-2.45.42-6.15,1.31-9.33,3.12,2.88-1.02,3.95-1.12,4.52-.89.13.07.25.15.35.24.34-.21.68-.41,1.04-.6,1.3-.71,2.43-1.33,3.42-1.86Z" fill="#555"/>
  <path d="m17.24,48.66l.25-1.01c.05-.21,5.34-20.58,22.14-24.61.53-.1,1.06-.14,1.61-.12,2.22.05,4.63.95,6.76,2.53l.92.68-1.12.21c-1.28.24-3.95.75-8.91,4.57-4.91,3.78-8.89,11.98-8.93,12.06l-.08.11-.18.14c-2.53,1.04-5.59,2.38-8.26,3.54-1.14.5-2.23.99-3.25,1.46l-.95.44Zm23.79-24.75c-.41,0-.81.03-1.19.1-14.03,3.37-19.76,18.7-21.07,22.85.73-.33,1.49-.67,2.27-1.01,2.74-1.2,5.62-2.45,8.11-3.49.46-.93,4.35-8.57,9.13-12.25,3.99-3.07,6.58-4.08,8.18-4.5-1.71-1.06-3.54-1.66-5.25-1.7-.06,0-.12,0-.19,0Z" fill="#555"/>
  <path d="m50.97,34.56l1.98-.99c-1.27-3.05-3.17-5.57-5.54-7.32-1.97-1.46-4.17-2.29-6.19-2.34v-1c3.91-.06,10.49,1.09,12.54,1.87,6.97,2.42,9.49,8.7,9.6,8.97l.29.75-.81-.08c-3.19-.3-6.06-.35-8.55-.17l.02.06h-.7l-2.64.25Zm6.33-1.41c1.49,0,3.08.07,4.77.2-.89-1.71-3.5-5.85-8.65-7.64-1.15-.43-4.24-1.1-7.37-1.49.67.34,1.32.75,1.95,1.22,2.53,1.87,4.57,4.58,5.91,7.83,1.06-.09,2.2-.13,3.39-.13Z" fill="#555"/>
</svg>