<?xml version="1.0" standalone="no"?>
<!DOCTYPE svg PUBLIC "-//W3C//DTD SVG 20010904//EN"
 "http://www.w3.org/TR/2001/REC-SVG-20010904/DTD/svg10.dtd">
<svg version="1.0" xmlns="http://www.w3.org/2000/svg"
 width="1024.000000pt" height="1168.000000pt" viewBox="0 0 1024.000000 1168.000000"
 preserveAspectRatio="xMidYMid meet">

<g transform="translate(0.000000,1168.000000) scale(0.100000,-0.100000)"
fill="#000000" stroke="none">
<path d="M0 5840 l0 -5840 5120 0 5120 0 0 5840 0 5840 -5120 0 -5120 0 0
-5840z m9928 5522 c-1 -4 -79 -77 -173 -162 -238 -216 -427 -408 -449 -455
-25 -52 -33 -215 -17 -354 14 -117 19 -135 91 -290 63 -140 115 -296 137 -416
21 -114 23 -402 3 -605 -18 -193 -17 -483 3 -765 49 -681 67 -1198 63 -1800
-2 -352 -5 -439 -18 -480 -69 -224 -159 -276 -437 -255 -181 14 -216 24 -266
75 -57 60 -122 188 -143 282 -24 113 -24 1029 1 1463 40 707 47 920 52 1520 3
496 10 626 36 723 6 23 46 117 90 209 91 191 114 273 104 368 -6 59 -36 150
-50 150 -10 0 -1380 -1050 -1524 -1168 -162 -132 -167 -185 -46 -457 158 -357
213 -624 202 -990 -10 -341 -82 -588 -243 -831 -98 -149 -332 -375 -582 -563
-317 -238 -458 -384 -554 -575 -57 -113 -80 -209 -80 -336 0 -138 22 -234 78
-350 44 -89 56 -105 198 -245 134 -134 165 -158 276 -224 621 -369 979 -722
1201 -1186 227 -475 256 -1057 78 -1561 -99 -280 -242 -499 -478 -734 -206
-204 -420 -353 -716 -500 -463 -229 -1057 -395 -1577 -440 -306 -27 -938 25
-1362 111 -943 192 -1568 579 -1845 1144 -94 191 -139 352 -162 580 -73 722
305 1294 1116 1692 562 275 1387 477 2180 533 88 6 178 14 199 18 l39 7 -42
49 c-192 221 -311 541 -311 832 1 146 42 367 90 479 l18 42 -221 6 c-509 14
-875 93 -1233 267 -688 334 -1103 1006 -1160 1877 l-6 103 -1161 2 -1161 3
1429 1265 c786 696 1602 1419 1814 1607 l386 342 3068 1 c1688 0 3067 -4 3065
-8z"/>
<path d="M4625 9974 c-133 -18 -191 -30 -263 -54 -712 -243 -1013 -1199 -687
-2185 134 -404 348 -750 642 -1035 216 -212 413 -340 653 -427 532 -193 1048
-35 1345 412 183 277 280 667 261 1050 -34 663 -316 1294 -777 1740 -326 315
-673 481 -1039 498 -58 3 -118 3 -135 1z"/>
<path d="M4840 4143 c-543 -39 -1025 -214 -1381 -500 -170 -138 -337 -340
-425 -516 -115 -228 -159 -514 -119 -767 32 -192 127 -417 252 -593 81 -115
297 -328 423 -419 328 -236 721 -392 1156 -458 179 -28 521 -38 700 -21 584
55 1099 277 1445 623 193 194 315 403 382 658 27 105 30 130 31 285 0 129 -4
190 -17 253 -155 711 -855 1268 -1787 1421 -211 35 -468 48 -660 34z"/>
</g>
</svg>
