<?xml version="1.0" standalone="no"?>
<!DOCTYPE svg PUBLIC "-//W3C//DTD SVG 20010904//EN"
 "http://www.w3.org/TR/2001/REC-SVG-20010904/DTD/svg10.dtd">
<svg version="1.0" xmlns="http://www.w3.org/2000/svg"
 width="1287.000000pt" height="1303.000000pt" viewBox="0 0 1287.000000 1303.000000"
 preserveAspectRatio="xMidYMid meet">

<g transform="translate(0.000000,1303.000000) scale(0.100000,-0.100000)"
fill="#000000" stroke="none">
<path d="M0 6515 l0 -6515 6435 0 6435 0 0 6515 0 6515 -6435 0 -6435 0 0
-6515z m1911 6296 c533 -113 957 -484 1133 -990 63 -180 79 -281 80 -491 1
-207 -13 -304 -65 -467 -78 -243 -191 -426 -378 -614 -231 -230 -487 -366
-802 -425 -142 -27 -429 -25 -565 4 -472 101 -853 394 -1064 817 -66 134 -100
230 -132 379 -32 148 -32 446 1 596 86 402 310 736 644 964 182 123 434 218
657 246 110 15 383 4 491 -19z m8139 -4260 c309 -37 538 -86 778 -167 619
-209 1059 -596 1335 -1173 176 -369 286 -796 347 -1351 44 -389 43 -374 47
-2993 l4 -2497 -1218 2 -1218 3 -6 2215 c-3 1218 -9 2231 -13 2250 -4 19 -16
94 -27 165 -40 252 -105 467 -204 670 -155 319 -351 526 -617 656 -177 85
-343 119 -587 119 -350 0 -587 -52 -856 -185 -455 -226 -750 -662 -870 -1289
-62 -323 -58 -182 -62 -2493 l-4 -2113 -1214 0 -1215 0 0 4055 0 4055 1145 0
1145 0 0 -585 c0 -361 4 -585 9 -585 6 0 39 44 75 98 393 590 1288 1063 2181
1151 61 6 124 13 140 15 17 2 188 3 380 1 277 -2 386 -8 525 -24z m-7222
-4123 l-3 -4053 -1215 0 -1215 0 -3 4053 -2 4052 1220 0 1220 0 -2 -4052z"/>
</g>
</svg>
