<svg xmlns="http://www.w3.org/2000/svg" width="1340" height="1331" viewBox="0 0 1340 1331" version="1.1"><path d="M 186.735 37.015 C 120.348 44.646, 65.698 95.242, 52.983 160.845 C 42.463 215.115, 62.700 272.264, 104.872 307.383 C 142.197 338.466, 190.052 350.277, 237.124 340.022 C 282.803 330.071, 322.183 298.826, 342.600 256.335 C 370.503 198.262, 358.803 128.147, 313.584 82.454 C 290.098 58.721, 262.478 44.168, 230.013 38.420 C 219.459 36.552, 197.087 35.825, 186.735 37.015 M 185.500 40.614 C 163.699 43.797, 140.016 52.284, 123.598 62.797 C 89.682 84.514, 65.822 118.934, 56.824 159.119 C 54.805 168.137, 54.500 172.191, 54.500 190 C 54.500 207.809, 54.805 211.863, 56.824 220.881 C 70.127 280.295, 113.979 323.928, 173.734 337.209 C 182.009 339.048, 186.629 339.380, 204 339.380 C 226.123 339.380, 234.669 338.144, 251.766 332.474 C 295.337 318.022, 332.022 281.337, 346.474 237.766 C 352.133 220.704, 353.378 212.114, 353.400 190 C 353.417 172.589, 353.094 168.041, 351.257 159.817 C 343.521 125.176, 325.692 95.633, 299.500 74.050 C 281.216 58.984, 260.951 49.021, 237 43.323 C 228.137 41.215, 223.539 40.775, 207.500 40.500 C 197.050 40.322, 187.150 40.373, 185.500 40.614 M 954.535 463.027 C 886.250 469.143, 825.268 491.393, 773.757 528.986 C 755.762 542.119, 731.855 567.454, 720.309 585.625 C 719.379 587.089, 719.105 574.830, 719.059 529.750 L 719 472 602.500 472 L 486 472 486 879 L 486 1286 609.473 1286 L 732.947 1286 733.280 1073.250 C 733.644 840.387, 733.278 855.100, 739.502 823.182 C 753.118 753.351, 789.485 707.175, 845.676 688.372 C 874.163 678.840, 910.965 675.712, 937.335 680.582 C 1000.060 692.166, 1039.862 746.818, 1051.670 837.575 C 1053.190 849.262, 1053.386 871.357, 1053.710 1068.250 L 1054.068 1286 1177.588 1286 L 1301.108 1286 1300.712 1036.750 C 1300.321 790.227, 1300.210 781.600, 1296.983 747 C 1288.207 652.907, 1263.972 587.119, 1221.001 540.737 C 1185.308 502.210, 1130.936 476.892, 1062.500 466.931 C 1035.730 463.035, 977.828 460.941, 954.535 463.027 M 971 465.607 C 906.572 469.023, 851.111 485.196, 800.247 515.400 C 770.012 533.354, 740.594 560.518, 725.387 584.524 C 721.320 590.944, 720.252 592, 717.825 592 L 715 592 715 533.750 L 715 475.500 602.500 475.759 L 490 476.017 490 879.509 L 490 1283 609.500 1283 L 729 1283 729.015 1086.750 C 729.029 892.276, 729.373 868.238, 732.481 844.280 C 743.391 760.208, 781.642 705.935, 844.697 685.059 C 881.241 672.961, 924.766 671.555, 954.671 681.507 C 974.414 688.077, 987.585 696.349, 1003.053 711.895 C 1032.726 741.714, 1050.426 786.933, 1055.938 847 C 1056.639 854.637, 1056.994 929.792, 1056.997 1070.750 L 1057 1283 1177.039 1283 L 1297.077 1283 1296.706 1030.750 C 1296.317 765.452, 1296.407 771.199, 1292.020 733.034 C 1283.518 659.081, 1264.748 603.444, 1234.453 562.406 C 1192.433 505.483, 1125.036 473.986, 1030.500 467.092 C 1014.634 465.935, 980.761 465.089, 971 465.607 M 81 879 L 81 1286 204 1286 L 327 1286 327 879 L 327 472 204 472 L 81 472 81 879 M 203.250 475.754 L 84 476.008 84 879.504 L 84 1283 204 1283 L 324 1283 324 879.559 C 324 657.666, 323.663 475.979, 323.250 475.809 C 322.837 475.639, 268.837 475.614, 203.250 475.754" stroke="none" fill="#2a2a2a" fill-rule="evenodd"/><path d="M 0 665.501 L 0 1331.001 670.250 1330.751 L 1340.500 1330.500 1340.751 665.250 L 1341.001 0 670.501 0 L 0 0 0 665.501 M 0.497 666 C 0.497 1032.025, 0.611 1181.763, 0.750 998.750 C 0.889 815.738, 0.889 516.263, 0.750 333.250 C 0.611 150.238, 0.497 299.975, 0.497 666 M 186.735 37.015 C 120.348 44.646, 65.698 95.242, 52.983 160.845 C 42.463 215.115, 62.700 272.264, 104.872 307.383 C 142.197 338.466, 190.052 350.277, 237.124 340.022 C 282.803 330.071, 322.183 298.826, 342.600 256.335 C 370.503 198.262, 358.803 128.147, 313.584 82.454 C 290.098 58.721, 262.478 44.168, 230.013 38.420 C 219.459 36.552, 197.087 35.825, 186.735 37.015 M 185.500 40.614 C 163.699 43.797, 140.016 52.284, 123.598 62.797 C 89.682 84.514, 65.822 118.934, 56.824 159.119 C 54.805 168.137, 54.500 172.191, 54.500 190 C 54.500 207.809, 54.805 211.863, 56.824 220.881 C 70.127 280.295, 113.979 323.928, 173.734 337.209 C 182.009 339.048, 186.629 339.380, 204 339.380 C 226.123 339.380, 234.669 338.144, 251.766 332.474 C 295.337 318.022, 332.022 281.337, 346.474 237.766 C 352.133 220.704, 353.378 212.114, 353.400 190 C 353.417 172.589, 353.094 168.041, 351.257 159.817 C 343.521 125.176, 325.692 95.633, 299.500 74.050 C 281.216 58.984, 260.951 49.021, 237 43.323 C 228.137 41.215, 223.539 40.775, 207.500 40.500 C 197.050 40.322, 187.150 40.373, 185.500 40.614 M 954.535 463.027 C 886.250 469.143, 825.268 491.393, 773.757 528.986 C 755.762 542.119, 731.855 567.454, 720.309 585.625 C 719.379 587.089, 719.105 574.830, 719.059 529.750 L 719 472 602.500 472 L 486 472 486 879 L 486 1286 609.473 1286 L 732.947 1286 733.280 1073.250 C 733.644 840.387, 733.278 855.100, 739.502 823.182 C 753.118 753.351, 789.485 707.175, 845.676 688.372 C 874.163 678.840, 910.965 675.712, 937.335 680.582 C 1000.060 692.166, 1039.862 746.818, 1051.670 837.575 C 1053.190 849.262, 1053.386 871.357, 1053.710 1068.250 L 1054.068 1286 1177.588 1286 L 1301.108 1286 1300.712 1036.750 C 1300.321 790.227, 1300.210 781.600, 1296.983 747 C 1288.207 652.907, 1263.972 587.119, 1221.001 540.737 C 1185.308 502.210, 1130.936 476.892, 1062.500 466.931 C 1035.730 463.035, 977.828 460.941, 954.535 463.027 M 971 465.607 C 906.572 469.023, 851.111 485.196, 800.247 515.400 C 770.012 533.354, 740.594 560.518, 725.387 584.524 C 721.320 590.944, 720.252 592, 717.825 592 L 715 592 715 533.750 L 715 475.500 602.500 475.759 L 490 476.017 490 879.509 L 490 1283 609.500 1283 L 729 1283 729.015 1086.750 C 729.029 892.276, 729.373 868.238, 732.481 844.280 C 743.391 760.208, 781.642 705.935, 844.697 685.059 C 881.241 672.961, 924.766 671.555, 954.671 681.507 C 974.414 688.077, 987.585 696.349, 1003.053 711.895 C 1032.726 741.714, 1050.426 786.933, 1055.938 847 C 1056.639 854.637, 1056.994 929.792, 1056.997 1070.750 L 1057 1283 1177.039 1283 L 1297.077 1283 1296.706 1030.750 C 1296.317 765.452, 1296.407 771.199, 1292.020 733.034 C 1283.518 659.081, 1264.748 603.444, 1234.453 562.406 C 1192.433 505.483, 1125.036 473.986, 1030.500 467.092 C 1014.634 465.935, 980.761 465.089, 971 465.607 M 81 879 L 81 1286 204 1286 L 327 1286 327 879 L 327 472 204 472 L 81 472 81 879 M 203.250 475.754 L 84 476.008 84 879.504 L 84 1283 204 1283 L 324 1283 324 879.559 C 324 657.666, 323.663 475.979, 323.250 475.809 C 322.837 475.639, 268.837 475.614, 203.250 475.754" stroke="none" fill="#fbfbfb" fill-rule="evenodd"/></svg>