<svg xmlns="http://www.w3.org/2000/svg" width="1024" height="1536" viewBox="0 0 1024 1536" version="1.1"><path d="M 555.750 210.723 C 557.538 210.945, 560.462 210.945, 562.250 210.723 C 564.038 210.502, 562.575 210.320, 559 210.320 C 555.425 210.320, 553.962 210.502, 555.750 210.723 M 550.968 250.245 C 544.760 260.214, 531.375 287.339, 523.210 306.500 C 508.993 339.862, 495.343 380.922, 485.513 419.897 C 480.901 438.183, 479.150 440.172, 459.373 449.597 C 413.945 471.244, 382.429 501.388, 363.509 541.287 C 345.439 579.390, 342.439 621.312, 354.118 672.500 C 355.749 679.650, 357.353 688.514, 357.683 692.197 C 358.030 696.078, 358.799 699.092, 359.512 699.366 C 361.602 700.168, 375.974 698.082, 387 695.376 C 404.557 691.068, 427.016 681.537, 439.854 672.947 L 446.207 668.696 445.536 664.598 C 441.902 642.389, 441.307 630.306, 443.055 614.211 C 449.461 555.223, 492.374 506.439, 545.318 497.956 C 550.555 497.117, 558.147 496.904, 568.318 497.311 C 594.258 498.347, 611.180 503.988, 628.460 517.360 C 629.136 517.882, 637.596 515.270, 650.036 510.698 C 661.291 506.562, 680.623 499.951, 692.997 496.009 C 705.370 492.066, 715.625 488.708, 715.786 488.547 C 715.947 488.386, 712.627 484.826, 708.409 480.634 C 698.190 470.482, 683.641 459.452, 672 453.033 C 656.035 444.229, 653.996 441.310, 654.007 427.282 C 654.017 414.789, 656.899 403.838, 663.994 389.328 C 671.211 374.570, 681.582 360.480, 693.749 348.902 C 709.397 334.010, 721.342 326.077, 738 319.512 C 743.225 317.453, 748.513 314.841, 749.750 313.710 C 754.971 308.934, 751.271 302.549, 739.184 295.473 C 718.142 283.156, 694.160 286.417, 669 305.017 C 660.994 310.935, 641.738 330.624, 632.997 341.828 C 616.025 363.584, 600.337 388.526, 590.422 409.519 C 583.621 423.917, 581.170 427.362, 575.768 430.119 C 570.422 432.846, 562.739 432.375, 558.045 429.032 C 549.081 422.649, 549.461 412.757, 561.161 348 C 569.601 301.282, 575.415 278.759, 585.109 255.225 C 586.072 252.885, 586.160 251.478, 585.417 250.299 C 584.118 248.240, 575.690 245.323, 567.059 243.944 C 563.452 243.368, 559.512 242.692, 558.305 242.443 C 556.461 242.062, 555.287 243.311, 550.968 250.245 M 265.808 411.907 C 256.527 413.935, 249.831 417.082, 247.622 420.454 C 245.773 423.277, 245.340 425.725, 243.018 446.511 C 237.663 494.434, 228.114 531.342, 213.413 560.937 C 205.047 577.778, 199.301 586.627, 185.449 604 C 156.049 640.873, 139.586 671.085, 130.026 705.708 C 126.574 718.209, 122.856 738.207, 124.130 737.420 C 124.609 737.124, 125 736.206, 125 735.381 C 125 734.555, 127.054 728.844, 129.565 722.690 C 145.348 684.004, 172.838 646.934, 204.775 621.270 C 225.924 604.275, 244.940 593.024, 271.473 581.805 C 287.850 574.881, 288.772 574.337, 295.612 567.553 C 305.822 557.428, 310.870 546.833, 314.697 527.500 C 317.192 514.898, 317.184 478.324, 314.682 462 C 312.625 448.572, 307.777 428.031, 304.673 419.591 C 302.728 414.300, 302.081 413.533, 298.500 412.261 C 291.832 409.893, 275.818 409.720, 265.808 411.907 M 867.500 480.662 C 864.200 481.507, 841.597 487.111, 817.272 493.115 C 746.977 510.468, 700.535 524.290, 656.601 540.935 C 643.895 545.748, 631.475 550.177, 629 550.776 C 620.143 552.920, 610.653 553.163, 597.500 551.581 C 579.568 549.425, 561.787 549.554, 550.304 551.924 C 539.747 554.103, 525.041 560.654, 515.623 567.375 C 508.845 572.212, 497.953 583.295, 493.261 590.131 C 486.646 599.768, 479.202 617.212, 477.449 627.185 C 476.805 630.850, 476.825 630.875, 481.151 631.990 C 520.886 642.226, 554.234 668.681, 577.515 708.433 C 580.715 713.897, 584.049 720.254, 584.925 722.561 C 586.010 725.421, 588.327 728.231, 592.207 731.391 C 595.336 733.940, 600.474 739.057, 603.624 742.763 C 610.327 750.646, 621.575 767.483, 623.142 771.977 C 623.741 773.696, 624.405 774.929, 624.617 774.717 C 625.236 774.097, 627.729 754.861, 629.505 737 C 632.187 710.025, 636.437 694.824, 647.172 673.812 C 659.188 650.293, 678.611 626.772, 696.775 613.745 C 714.180 601.262, 742.652 586.889, 768.629 577.473 C 784.434 571.744, 803.927 565.938, 849.411 553.413 C 889.714 542.315, 889.772 542.287, 892.021 532.914 C 893.554 526.521, 892.784 517.106, 889.572 502.997 C 884.555 480.955, 880.881 477.238, 867.500 480.662 M 922.343 524.500 C 922.346 528.900, 922.522 530.576, 922.733 528.224 C 922.945 525.872, 922.942 522.272, 922.727 520.224 C 922.512 518.176, 922.339 520.100, 922.343 524.500 M 742 622.826 C 727.341 626.955, 717.833 633.023, 703.445 647.431 C 684.429 666.473, 670.216 692.365, 663.996 719.294 C 659.517 738.681, 663.650 751.459, 677.919 762.341 C 684.636 767.462, 704.372 778.262, 716.585 783.497 C 734.808 791.309, 759.816 798.917, 782.500 803.548 C 803.565 807.849, 814.896 805.891, 822.395 796.656 C 829.431 787.991, 837.153 768.857, 840.684 751.339 C 843.208 738.817, 843.199 708.811, 840.668 697.232 C 835.099 671.754, 824.223 651.869, 808.784 638.939 C 800.765 632.224, 793.309 628.108, 782.500 624.429 C 771.749 620.770, 752.063 619.991, 742 622.826 M 90.405 765.500 C 90.406 774.300, 90.559 777.766, 90.745 773.203 C 90.930 768.639, 90.929 761.439, 90.742 757.203 C 90.555 752.966, 90.404 756.700, 90.405 765.500 M 654.004 788.256 C 651.950 800.926, 646.050 827.918, 641.382 846 C 633.107 878.055, 622.663 907.173, 607.488 940.500 C 590.324 978.194, 585.100 992.255, 580.907 1012.042 C 579.176 1020.208, 578.684 1025.897, 578.660 1038 C 578.612 1062.677, 582.184 1078.249, 596.414 1115.404 C 603.247 1133.247, 606.968 1144.769, 610.169 1158 C 610.983 1161.364, 611.500 1169.521, 611.500 1179 C 611.500 1193.312, 611.326 1194.794, 609.234 1198.335 C 607.618 1201.068, 606.682 1204.926, 605.972 1211.772 C 605.424 1217.054, 604.505 1223.204, 603.929 1225.438 C 599.643 1242.073, 589.756 1259.203, 572.407 1280.047 C 564.369 1289.704, 564.178 1289.509, 577.500 1285.264 C 605.407 1276.373, 635.587 1254.686, 672 1217.359 C 747.375 1140.092, 807.776 1032.301, 822.965 947.949 C 829.253 913.030, 827.569 875.228, 819.009 859.169 C 812.083 846.174, 801.115 840.237, 770.814 833.079 C 722.763 821.728, 692.917 809.235, 666.347 789.350 C 662.048 786.132, 657.776 782.940, 656.854 782.256 C 655.347 781.137, 655.061 781.740, 654.004 788.256 M 684.486 1252.250 L 671.500 1265.500 684.750 1252.514 C 697.058 1240.452, 698.453 1239, 697.736 1239 C 697.590 1239, 691.628 1244.963, 684.486 1252.250" stroke="none" fill="#237ed3" fill-rule="evenodd"/><path d="M 544.133 214.091 C 540.443 215.935, 536.488 218.927, 534.333 221.506 C 529.081 227.789, 519.227 244.853, 508.639 266 C 488.679 305.865, 475.613 340.996, 463.494 387.374 C 461.069 396.655, 458.946 404.387, 458.777 404.556 C 458.608 404.725, 455.372 396.232, 451.586 385.682 C 438.964 350.513, 430.524 332.264, 411.726 299.500 C 401.862 282.307, 396.830 274.745, 382.404 255.434 C 365.186 232.385, 360.003 228.624, 345.500 228.657 C 335.553 228.680, 327.508 230.843, 314.281 237.051 C 300.236 243.643, 287.180 252.776, 276.498 263.480 C 264.603 275.397, 262.500 279.611, 262.500 291.521 C 262.500 299.718, 262.803 301.158, 265.822 307.291 C 268.149 312.018, 272.058 317.105, 278.867 324.270 C 297.160 343.520, 309.996 363.699, 315.478 381.822 C 316.165 384.093, 316.117 384.112, 313.298 382.654 C 306.476 379.126, 285.786 377.306, 270.832 378.917 C 247.450 381.437, 232.300 388.437, 223.945 400.580 C 218.227 408.891, 216.625 415.888, 211.483 455 C 206.195 495.228, 197.664 525.278, 183.947 552 C 177.566 564.431, 171.746 573.052, 158.658 589.463 C 134.942 619.199, 117.471 649.264, 103.692 684.047 C 95.941 703.614, 91.946 727.472, 91.272 758.215 C 90.369 799.431, 95.120 827.065, 108.514 858.500 C 110.857 864, 114.415 875.025, 116.420 883 C 140.533 978.925, 209.795 1087.823, 299.402 1170.696 C 349.158 1216.713, 416.005 1269.408, 458 1295.718 C 500.435 1322.304, 537.608 1331.666, 572.190 1324.478 C 609.325 1316.759, 642.112 1295.069, 689.542 1246.844 C 721.916 1213.927, 749.865 1178.911, 774.421 1140.500 C 824.354 1062.393, 852.640 989.254, 859.116 921.500 C 861.998 891.352, 857.429 850.125, 848.609 826.694 L 846.106 820.043 849.660 814.772 C 858.366 801.861, 866.373 780.980, 870.573 760.237 C 884.100 693.426, 859.871 628.514, 811.258 601.328 L 804.543 597.572 812.021 595.276 C 816.135 594.013, 835.690 588.438, 855.478 582.888 C 894.686 571.889, 901.791 569.054, 909.342 561.395 C 918.191 552.419, 921.970 541.372, 921.988 524.426 C 922.008 505.476, 917.047 483.846, 909.738 471.021 C 905.616 463.787, 897.672 455.907, 890.916 452.351 C 885.787 449.651, 884.865 449.506, 873.500 449.608 C 861.813 449.712, 860.509 449.964, 823.477 459.284 C 791.428 467.350, 763.346 474.774, 749.323 478.887 C 746.314 479.769, 746.001 479.598, 743.420 475.659 C 738.337 467.905, 728.234 456.523, 721.530 451 C 712.270 443.370, 696.448 432.170, 689.126 428.063 C 685.757 426.172, 683 424.283, 683 423.864 C 683 421.483, 688.752 405.473, 691.754 399.500 C 697.341 388.381, 702.085 382.109, 712.186 372.486 C 724.571 360.687, 736.015 353.004, 749.506 347.432 C 755.553 344.934, 762.384 341.788, 764.688 340.440 C 775.910 333.871, 784.312 315.658, 782.566 301.684 C 780.776 287.353, 770.420 275.749, 750.500 265.750 C 710.772 245.809, 672.051 256.992, 630.140 300.510 C 619.946 311.095, 607.107 326.709, 598.704 338.740 C 595.922 342.722, 593.497 345.830, 593.314 345.647 C 592.640 344.973, 597.146 321.077, 600.601 307 C 602.559 299.025, 606.824 284.304, 610.080 274.287 C 616.598 254.234, 617.494 246.742, 614.446 237.795 C 611.242 228.392, 603.895 222.377, 588.957 216.925 C 577.667 212.805, 568.419 211, 558.594 211 C 551.346 211, 549.552 211.384, 544.133 214.091 M 550.968 250.245 C 544.760 260.214, 531.375 287.339, 523.210 306.500 C 508.993 339.862, 495.343 380.922, 485.513 419.897 C 480.901 438.183, 479.150 440.172, 459.373 449.597 C 413.945 471.244, 382.429 501.388, 363.509 541.287 C 345.439 579.390, 342.439 621.312, 354.118 672.500 C 355.749 679.650, 357.353 688.514, 357.683 692.197 C 358.030 696.078, 358.799 699.092, 359.512 699.366 C 361.602 700.168, 375.974 698.082, 387 695.376 C 404.557 691.068, 427.016 681.537, 439.854 672.947 L 446.207 668.696 445.536 664.598 C 441.902 642.389, 441.307 630.306, 443.055 614.211 C 449.461 555.223, 492.374 506.439, 545.318 497.956 C 550.555 497.117, 558.147 496.904, 568.318 497.311 C 594.258 498.347, 611.180 503.988, 628.460 517.360 C 629.136 517.882, 637.596 515.270, 650.036 510.698 C 661.291 506.562, 680.623 499.951, 692.997 496.009 C 705.370 492.066, 715.625 488.708, 715.786 488.547 C 715.947 488.386, 712.627 484.826, 708.409 480.634 C 698.190 470.482, 683.641 459.452, 672 453.033 C 656.035 444.229, 653.996 441.310, 654.007 427.282 C 654.017 414.789, 656.899 403.838, 663.994 389.328 C 671.211 374.570, 681.582 360.480, 693.749 348.902 C 709.397 334.010, 721.342 326.077, 738 319.512 C 743.225 317.453, 748.513 314.841, 749.750 313.710 C 754.971 308.934, 751.271 302.549, 739.184 295.473 C 718.142 283.156, 694.160 286.417, 669 305.017 C 660.994 310.935, 641.738 330.624, 632.997 341.828 C 616.025 363.584, 600.337 388.526, 590.422 409.519 C 583.621 423.917, 581.170 427.362, 575.768 430.119 C 570.422 432.846, 562.739 432.375, 558.045 429.032 C 549.081 422.649, 549.461 412.757, 561.161 348 C 569.601 301.282, 575.415 278.759, 585.109 255.225 C 586.072 252.885, 586.160 251.478, 585.417 250.299 C 584.118 248.240, 575.690 245.323, 567.059 243.944 C 563.452 243.368, 559.512 242.692, 558.305 242.443 C 556.461 242.062, 555.287 243.311, 550.968 250.245 M 334.389 262.875 C 330.478 264.419, 323.728 267.833, 319.389 270.462 C 310.138 276.068, 294.412 288.362, 292.916 291.158 C 292.013 292.843, 293.329 294.618, 302.744 304.412 C 323.822 326.337, 339.752 354.410, 350.868 389.218 C 360.339 418.874, 361.081 454.885, 352.940 489.829 C 350.642 499.697, 350.622 500.085, 352.544 497.543 C 363.391 483.197, 384.610 462.910, 399.267 452.872 C 408.256 446.715, 430.262 435, 432.838 435 C 434.632 435, 434.026 431.759, 428.869 413.784 C 421.938 389.628, 411.614 364.378, 398.087 338.500 C 378.140 300.338, 350.046 259.925, 343.542 260.034 C 342.419 260.053, 338.300 261.332, 334.389 262.875 M 265.808 411.907 C 256.527 413.935, 249.831 417.082, 247.622 420.454 C 245.773 423.277, 245.340 425.725, 243.018 446.511 C 237.663 494.434, 228.114 531.342, 213.413 560.937 C 205.047 577.778, 199.301 586.627, 185.449 604 C 156.049 640.873, 139.586 671.085, 130.026 705.708 C 126.574 718.209, 122.856 738.207, 124.130 737.420 C 124.609 737.124, 125 736.206, 125 735.381 C 125 734.555, 127.054 728.844, 129.565 722.690 C 145.348 684.004, 172.838 646.934, 204.775 621.270 C 225.924 604.275, 244.940 593.024, 271.473 581.805 C 287.850 574.881, 288.772 574.337, 295.612 567.553 C 305.822 557.428, 310.870 546.833, 314.697 527.500 C 317.192 514.898, 317.184 478.324, 314.682 462 C 312.625 448.572, 307.777 428.031, 304.673 419.591 C 302.728 414.300, 302.081 413.533, 298.500 412.261 C 291.832 409.893, 275.818 409.720, 265.808 411.907 M 867.500 480.662 C 864.200 481.507, 841.597 487.111, 817.272 493.115 C 746.977 510.468, 700.535 524.290, 656.601 540.935 C 643.895 545.748, 631.475 550.177, 629 550.776 C 620.143 552.920, 610.653 553.163, 597.500 551.581 C 579.568 549.425, 561.787 549.554, 550.304 551.924 C 539.747 554.103, 525.041 560.654, 515.623 567.375 C 508.845 572.212, 497.953 583.295, 493.261 590.131 C 486.646 599.768, 479.202 617.212, 477.449 627.185 C 476.805 630.850, 476.825 630.875, 481.151 631.990 C 521.536 642.394, 555.008 669.265, 578.325 710 C 585.381 722.326, 587.169 727, 584.831 727 C 582.383 727, 578.813 723.987, 563 708.571 C 546.080 692.076, 540.483 687.503, 528.136 680.082 C 508.359 668.195, 483.200 661.218, 474.467 665.197 C 473.021 665.856, 469.146 670.327, 465.846 675.146 C 451.559 696.006, 428.215 711.653, 394.612 722.896 C 386.542 725.596, 373.446 729.040, 365.511 730.549 L 351.083 733.293 347.578 740.673 C 341.718 753.013, 332.361 765.739, 320.052 778.109 C 306.280 791.948, 295.923 799.751, 268.248 817.133 C 233.761 838.794, 222.413 847.970, 210.509 863.821 C 198.920 879.254, 192.321 894.911, 189.489 913.697 C 182.207 962.008, 203.807 1011.955, 259.895 1076.500 C 282.406 1102.406, 324.674 1142.791, 363.492 1175.480 C 391.990 1199.479, 435.315 1233.025, 451.300 1243.466 L 454.099 1245.295 453.452 1233.898 C 452.619 1219.225, 454.259 1198.418, 457.523 1182.264 C 460.445 1167.802, 472.103 1131.841, 477.829 1119.627 C 483.066 1108.456, 500.800 1075.749, 515.309 1050.500 C 539.339 1008.681, 551.254 987.117, 561.464 966.964 C 571.583 946.988, 583.368 921, 582.307 921 C 582.017 921, 579.337 923.233, 576.350 925.963 C 559.999 940.907, 531.747 955.353, 497 966.537 C 472.212 974.516, 456.322 981.836, 439.898 992.841 C 426.021 1002.139, 414.778 1012.809, 404.032 1026.880 C 393.523 1040.641, 388.915 1045.321, 386.356 1044.833 C 381.920 1043.988, 384.861 1033.635, 394.127 1017.475 C 404.450 999.470, 418.183 983.456, 433.500 971.559 C 448.447 959.950, 462.054 953.011, 488.500 943.511 C 507.579 936.657, 527.140 927.353, 539.500 919.253 C 568.063 900.535, 590.384 875.328, 604.366 846 C 617.922 817.566, 624.209 790.238, 629.558 736.500 C 632.192 710.031, 636.499 694.703, 647.172 673.812 C 659.188 650.293, 678.611 626.772, 696.775 613.745 C 714.180 601.262, 742.652 586.889, 768.629 577.473 C 784.434 571.744, 803.927 565.938, 849.411 553.413 C 889.714 542.315, 889.772 542.287, 892.021 532.914 C 893.554 526.521, 892.784 517.106, 889.572 502.997 C 884.555 480.955, 880.881 477.238, 867.500 480.662 M 315.500 594.370 C 300.963 599.319, 265.520 614.147, 257.500 618.636 C 208.727 645.937, 173.527 685.675, 154.098 735.369 C 139.120 773.677, 136.419 818.968, 146.618 860.808 C 149.519 872.711, 155.411 890.941, 157.965 895.923 L 159.721 899.346 162.492 890.923 C 170.292 867.221, 181.625 849.067, 199.899 831 C 213.942 817.116, 220.056 812.509, 247 795.507 C 276.650 776.797, 293.135 763.410, 305.207 748.240 C 322.590 726.395, 329.222 701.506, 324.058 677.500 C 317.358 646.354, 315.794 628.133, 317.934 606.151 C 318.595 599.359, 318.993 593.701, 318.818 593.576 C 318.643 593.451, 317.150 593.809, 315.500 594.370 M 742 622.826 C 727.341 626.955, 717.833 633.023, 703.445 647.431 C 684.429 666.473, 670.216 692.365, 663.996 719.294 C 659.517 738.681, 663.650 751.459, 677.919 762.341 C 684.636 767.462, 704.372 778.262, 716.585 783.497 C 734.808 791.309, 759.816 798.917, 782.500 803.548 C 803.565 807.849, 814.896 805.891, 822.395 796.656 C 829.431 787.991, 837.153 768.857, 840.684 751.339 C 843.208 738.817, 843.199 708.811, 840.668 697.232 C 835.099 671.754, 824.223 651.869, 808.784 638.939 C 800.765 632.224, 793.309 628.108, 782.500 624.429 C 771.749 620.770, 752.063 619.991, 742 622.826 M 654.004 788.256 C 651.950 800.926, 646.050 827.918, 641.382 846 C 633.107 878.055, 622.663 907.173, 607.488 940.500 C 590.324 978.194, 585.100 992.255, 580.907 1012.042 C 579.176 1020.208, 578.684 1025.897, 578.660 1038 C 578.612 1062.677, 582.184 1078.249, 596.414 1115.404 C 603.247 1133.247, 606.968 1144.769, 610.169 1158 C 610.983 1161.364, 611.500 1169.521, 611.500 1179 C 611.500 1192.263, 611.229 1194.997, 609.626 1197.940 C 607.901 1201.107, 607.648 1201.239, 606.451 1199.603 C 605.736 1198.625, 604.635 1194.601, 604.004 1190.662 C 600.838 1170.896, 597.802 1163.139, 582.327 1135.276 C 575.538 1123.053, 568.224 1109.054, 566.074 1104.168 C 561.238 1093.180, 554.895 1073.369, 552.502 1061.783 C 551.512 1056.989, 550.367 1053.273, 549.958 1053.526 C 548.900 1054.180, 533.026 1081.237, 520.932 1103 C 499.711 1141.187, 490.906 1162.940, 484.856 1192.132 C 482.140 1205.242, 481.661 1209.704, 481.600 1222.500 C 481.490 1245.520, 485.710 1257.800, 497.907 1269.952 C 516.210 1288.187, 550.129 1294.632, 578 1285.170 C 606.838 1275.379, 635.737 1254.532, 672 1217.359 C 747.375 1140.092, 807.776 1032.301, 822.965 947.949 C 829.253 913.030, 827.569 875.228, 819.009 859.169 C 812.083 846.174, 801.115 840.237, 770.814 833.079 C 722.763 821.728, 692.917 809.235, 666.347 789.350 C 662.048 786.132, 657.776 782.940, 656.854 782.256 C 655.347 781.137, 655.061 781.740, 654.004 788.256" stroke="none" fill="#040404" fill-rule="evenodd"/><path d="M 334.389 262.875 C 330.478 264.419, 323.728 267.833, 319.389 270.462 C 310.138 276.068, 294.412 288.362, 292.916 291.158 C 292.013 292.843, 293.329 294.618, 302.744 304.412 C 323.822 326.337, 339.752 354.410, 350.868 389.218 C 360.339 418.874, 361.081 454.885, 352.940 489.829 C 350.642 499.697, 350.622 500.085, 352.544 497.543 C 363.391 483.197, 384.610 462.910, 399.267 452.872 C 408.256 446.715, 430.262 435, 432.838 435 C 434.632 435, 434.026 431.759, 428.869 413.784 C 421.938 389.628, 411.614 364.378, 398.087 338.500 C 378.140 300.338, 350.046 259.925, 343.542 260.034 C 342.419 260.053, 338.300 261.332, 334.389 262.875 M 315.500 594.370 C 300.963 599.319, 265.520 614.147, 257.500 618.636 C 208.727 645.937, 173.527 685.675, 154.098 735.369 C 139.120 773.677, 136.419 818.968, 146.618 860.808 C 149.519 872.711, 155.411 890.941, 157.965 895.923 L 159.721 899.346 162.492 890.923 C 170.292 867.221, 181.625 849.067, 199.899 831 C 213.942 817.116, 220.056 812.509, 247 795.507 C 276.650 776.797, 293.135 763.410, 305.207 748.240 C 322.590 726.395, 329.222 701.506, 324.058 677.500 C 317.358 646.354, 315.794 628.133, 317.934 606.151 C 318.595 599.359, 318.993 593.701, 318.818 593.576 C 318.643 593.451, 317.150 593.809, 315.500 594.370 M 474.178 665.252 C 472.901 665.867, 469.156 670.313, 465.854 675.134 C 451.558 696.006, 428.223 711.651, 394.612 722.896 C 386.542 725.596, 373.446 729.040, 365.511 730.549 L 351.083 733.293 347.578 740.673 C 341.718 753.013, 332.361 765.739, 320.052 778.109 C 306.280 791.948, 295.923 799.751, 268.248 817.133 C 233.761 838.794, 222.413 847.970, 210.509 863.821 C 198.920 879.254, 192.321 894.911, 189.489 913.697 C 182.207 962.008, 203.807 1011.955, 259.895 1076.500 C 282.406 1102.406, 324.674 1142.791, 363.492 1175.480 C 391.990 1199.479, 435.315 1233.025, 451.300 1243.466 L 454.099 1245.295 453.452 1233.898 C 452.619 1219.225, 454.259 1198.418, 457.523 1182.264 C 460.445 1167.802, 472.103 1131.841, 477.829 1119.627 C 483.066 1108.456, 500.800 1075.749, 515.309 1050.500 C 539.339 1008.681, 551.254 987.117, 561.464 966.964 C 571.583 946.988, 583.368 921, 582.307 921 C 582.017 921, 579.337 923.233, 576.350 925.963 C 559.999 940.907, 531.747 955.353, 497 966.537 C 472.212 974.516, 456.322 981.836, 439.898 992.841 C 426.021 1002.139, 414.778 1012.809, 404.032 1026.880 C 393.523 1040.641, 388.915 1045.321, 386.356 1044.833 C 381.920 1043.988, 384.861 1033.635, 394.127 1017.475 C 404.450 999.470, 418.183 983.456, 433.500 971.559 C 448.447 959.950, 462.054 953.011, 488.500 943.511 C 526.173 929.978, 550.661 914.750, 573.909 890.400 C 598.981 864.140, 615.167 829.895, 622.929 786.684 C 624.808 776.221, 624.813 775.730, 623.074 771.684 C 616.532 756.466, 593.293 729.233, 584.927 726.980 C 581.431 726.039, 577.725 722.961, 564.087 709.666 C 546.013 692.048, 540.507 687.517, 528.136 680.082 C 508.302 668.161, 482.736 661.135, 474.178 665.252 M 549.383 1054.105 C 547.316 1056.723, 532.347 1082.466, 521.088 1102.769 C 499.380 1141.912, 490.961 1162.677, 484.856 1192.132 C 482.140 1205.242, 481.661 1209.704, 481.600 1222.500 C 481.546 1233.835, 481.957 1239.088, 483.281 1244 C 488.903 1264.853, 503.228 1279.128, 525.318 1285.890 C 533.575 1288.417, 549.106 1290.002, 558.352 1289.260 L 565.140 1288.715 571.950 1280.607 C 600.356 1246.788, 610.579 1219.047, 604.603 1192 C 598.714 1165.348, 597.613 1162.550, 582.025 1134.627 C 575.407 1122.771, 568.220 1109.045, 566.055 1104.124 C 561.474 1093.715, 554.895 1073.145, 552.297 1061.105 C 550.898 1054.625, 550.234 1053.029, 549.383 1054.105" stroke="none" fill="#e9342c" fill-rule="evenodd"/></svg>